# xmcd CD database file
#
# Track frame offsets:
#	150
#	11473
#	22889
#	33055
#	44088
#	54786
#	67057
#	78827
#	88937
#	99661
#	111271
#	122818
#	134906
#	145814
#	156509
#	168325
#	181205
#	195522
#	206415
#	215852
#	225895
#	238666
#	249622
#	261115
#	271751
#	285209
#	297757
#	307896
#
# Disc length: 4255 seconds
#
# Revision: 0
# Processed by: cddbd v1.5.2PL0 Copyright (c) Steve Scherf et al.
# Submitted via: CDex 1.51
#
DISCID=89109d1c
DTITLE=Claude Gray - The Tall Texan
DYEAR=1900
DGENRE=Country
TTITLE0=Claude Gray/My Tears Are Inside
TTITLE1=Claude Gray/When The Doorbell Rang
TTITLE2=Claude Gray/Barricade Around My Heart
TTITLE3=Claude Gray/Late Again
TTITLE4=Claude Gray/I Just Want To Be Alone
TTITLE5=Claude Gray/You Take The Table And I'll Take The Chairs
TTITLE6=Claude Gray/Talk To Me Lonesome Heart
TTITLE7=Claude Gray/Let's End It Before It Begins
TTITLE8=Claude Gray/A World I Can't Live In
TTITLE9=Claude Gray/Blackboard Of My Heart
TTITLE10=Claude Gray/I've Been Known To Cry
TTITLE11=Claude Gray/Treasure Of Love
TTITLE12=Claude Gray/My Ears Should Burn When Fools Are Talked About
TTITLE13=Claude Gray/Stone Heart
TTITLE14=Claude Gray/Your Old Love Letters
TTITLE15=Claude Gray/I Thought I Heard You Call My Name
TTITLE16=Claude Gray/You Belong To Me
TTITLE17=Claude GrayShrimp Boats
TTITLE18=Claude Gray/Why Don't You Believe Me
TTITLE19=Claude Gray/Goodnight Irene
TTITLE20=Claude Gray/Cry
TTITLE21=Claude Gray/I Really Don't Want To Know
TTITLE22=Claude Gray/Till I Waltz Again With You
TTITLE23=Claude Gray/Just Walking In The Rain
TTITLE24=Claude Gray/My Happiness
TTITLE25=Claude Gray/Too Young
TTITLE26=Claude Gray/Three Times
TTITLE27=Claude Gray/Call Of The Wild
EXTD=
EXTT0=
EXTT1=
EXTT2=
EXTT3=
EXTT4=
EXTT5=
EXTT6=
EXTT7=
EXTT8=
EXTT9=
EXTT10=
EXTT11=
EXTT12=
EXTT13=
EXTT14=
EXTT15=
EXTT16=
EXTT17=
EXTT18=
EXTT19=
EXTT20=
EXTT21=
EXTT22=
EXTT23=
EXTT24=
EXTT25=
EXTT26=
EXTT27=
PLAYORDER=
